<svg xmlns="http://www.w3.org/2000/svg" viewBox="0 0 274 52.06"><title>Crypto.com logo</title><path d="M397.79,486,375,499v26l22.79,13,22.79-13V499Zm0,0L375,499v26l22.79,13,22.79-13V499Z" transform="translate(-375 -485.97)" style="fill:#fff"/><path d="M406.78,527.86h-3.24l-3.88-3.53v-1.81l4-3.8v-6l5.25-3.39,6,4.47Zm-13.43-9.49.59-5.65-2-5.06h11.6l-1.92,5.06.55,5.65h-8.86Zm2.65,6-3.88,3.57h-3.29l-8.17-14.1,6-4.43,5.3,3.34v6l4,3.8Zm-7.22-27.12h17.95l2.15,9H386.69Zm9-11.25L375,499v26l22.79,13,22.79-13V499Z" transform="translate(-375 -485.97)" style="fill:#03316c"/><path d="M446.15,524.07a10.27,10.27,0,0,1-10.46-10.39,10.42,10.42,0,0,1,10.5-10.53,10.17,10.17,0,0,1,8.08,3.43l-2.88,3.07a6.79,6.79,0,0,0-5.25-2.49c-3.38,0-5.85,2.89-5.85,6.42s2.51,6.51,6.07,6.51a7.25,7.25,0,0,0,5.25-2.49l2.79,2.76a10.51,10.51,0,0,1-8.27,3.71" transform="translate(-375 -485.97)" style="fill:#002e73"/><path d="M463.23,524.07h-4.66V503.19h4.66v4.88c1.28-3,3.61-5.06,7.17-4.88v4.88h-.27c-4.06,0-6.9,2.62-6.9,8Z" transform="translate(-375 -485.97)" style="fill:#002e73"/><polygon points="119.74 17.13 109.46 43.7 104.76 43.7 107 38.1 98.18 17.13 103.16 17.13 109.14 32.63 114.9 17.13 119.74 17.13" style="fill:#002e73"/><path d="M508.44,507.12c-3.15,0-5.89,2.53-5.89,6.46s2.79,6.46,5.89,6.46,5.8-2.49,5.8-6.46-2.65-6.46-5.8-6.46m1.05,16.9a8.26,8.26,0,0,1-6.85-3.53v9.17H498V503.1h4.66v3.75a8.13,8.13,0,0,1,6.85-3.75c4.8,0,9.45,3.75,9.45,10.44S514.33,524,509.49,524" transform="translate(-375 -485.97)" style="fill:#002e73"/><path d="M529.13,507.48v9.85a2.2,2.2,0,0,0,2.51,2.49h1.83v4.11h-3.2c-3.38,0-5.8-1.49-5.8-5.88V507.48h-2.56v-3.93h2.56V498h4.66v5.51h4.34v3.93Z" transform="translate(-375 -485.97)" style="fill:#002e73"/><path d="M548.12,507.12c-3.74,0-6.12,2.89-6.12,6.42a6.23,6.23,0,0,0,6.17,6.51c3.74,0,6.12-2.89,6.12-6.42a6.15,6.15,0,0,0-6.17-6.51m0,16.95a10.42,10.42,0,0,1-10.73-10.39,10.55,10.55,0,0,1,10.82-10.53A10.44,10.44,0,0,1,559,513.58a10.56,10.56,0,0,1-10.87,10.49" transform="translate(-375 -485.97)" style="fill:#002e73"/><path d="M603.42,507.12c-3.74,0-6.12,2.89-6.12,6.42a6.23,6.23,0,0,0,6.16,6.51c3.74,0,6.12-2.89,6.12-6.42a6.17,6.17,0,0,0-6.17-6.51m0,16.95a10.42,10.42,0,0,1-10.73-10.39,10.55,10.55,0,0,1,10.82-10.53,10.44,10.44,0,0,1,10.78,10.44,10.58,10.58,0,0,1-10.87,10.49" transform="translate(-375 -485.97)" style="fill:#002e73"/><path d="M641.88,503.1c4.43,0,7.12,2.76,7.12,7.68V524h-4.66V512.18c0-3.21-1.51-4.88-4.11-4.88s-4.34,1.76-4.34,5v11.8h-4.66V512.18c0-3.12-1.55-4.88-4.11-4.88s-4.34,1.9-4.34,5v11.75h-4.66V503.14h4.66v3.43c1.32-1.76,3.06-3.43,6.17-3.43a6.4,6.4,0,0,1,6,3.53,8.34,8.34,0,0,1,6.9-3.57" transform="translate(-375 -485.97)" style="fill:#002e73"/><polygon points="188.06 33.63 190.06 32.49 190.34 32.49 192.39 33.63 192.53 33.85 192.53 36.2 192.39 36.43 190.34 37.56 190.06 37.56 188.06 36.43 187.92 36.2 187.92 33.85 188.06 33.63" style="fill:#002e73"/><path d="M581.64,524a10.47,10.47,0,1,1,8.49-17.31l-2.92,3a6.89,6.89,0,0,0-5.21-2.62c-3.38,0-5.89,2.76-5.94,6.33S578.45,520,582,520a7.1,7.1,0,0,0,5.3-2.4l2.74,2.8a10.44,10.44,0,0,1-8.4,3.57" transform="translate(-375 -485.97)" style="fill:#002e73"/></svg>